<?xml version="1.0" encoding="UTF-8" standalone="no"?>
<!DOCTYPE svg PUBLIC "-//W3C//DTD SVG 1.1//EN" "http://www.w3.org/Graphics/SVG/1.1/DTD/svg11.dtd">
<svg width="100%" height="100%" viewBox="0 0 94 78" version="1.1" xmlns="http://www.w3.org/2000/svg" xmlns:xlink="http://www.w3.org/1999/xlink" xml:space="preserve" xmlns:serif="http://www.serif.com/" style="fill-rule:evenodd;clip-rule:evenodd;stroke-linejoin:round;stroke-miterlimit:2;">
    <g transform="matrix(1,0,0,1,-8.15478,-21.0389)">
        <g transform="matrix(1,0,0,1,5,10)">
            <path d="M19.109,11.039L47.57,11.039C49.215,11.039 50.715,11.715 51.801,12.801C52.894,13.894 53.57,15.394 53.57,17.039L53.57,34.359C53.57,36.003 52.894,37.503 51.808,38.589C50.715,39.683 49.215,40.359 47.57,40.359L45.699,40.359L45.699,47.703L55.148,47.703L55.148,43.738C55.148,42.633 56.043,41.738 57.148,41.738L61.519,41.738C62.625,41.738 63.519,42.633 63.519,43.738C63.519,44.843 62.625,45.738 61.519,45.738L59.148,45.738L59.148,55.722C59.144,56.386 58.804,57.015 58.265,57.375L36.71,73.18L53.327,85.364C54.214,86.016 54.405,87.266 53.757,88.153C53.105,89.04 51.855,89.231 50.968,88.582L33.335,75.656L15.702,88.582C14.815,89.235 13.565,89.043 12.913,88.153C12.26,87.266 12.452,86.016 13.342,85.364L29.959,73.18L8.459,57.414C7.897,57.058 7.526,56.433 7.526,55.722L7.526,45.738L5.155,45.738C4.049,45.738 3.155,44.843 3.155,43.738C3.155,42.632 4.049,41.738 5.155,41.738L9.526,41.738C10.631,41.738 11.526,42.632 11.526,43.738L11.526,47.703L20.975,47.703L20.975,40.359L19.104,40.359C17.459,40.359 15.959,39.683 14.873,38.597C13.78,37.503 13.104,36.003 13.104,34.359L13.104,17.039C13.104,15.394 13.78,13.894 14.866,12.808C15.959,11.715 17.459,11.039 19.104,11.039L19.109,11.039ZM78.429,71.344C78.429,70.238 79.324,69.344 80.429,69.344C81.535,69.344 82.429,70.239 82.429,71.344L82.429,72.903C82.429,74.008 81.534,74.903 80.429,74.903C79.324,74.903 78.429,74.008 78.429,72.903L78.429,71.344ZM70.433,64.758L63.378,64.758C62.273,64.758 61.378,63.864 61.378,62.758L61.378,56.789C61.378,55.684 62.273,54.789 63.378,54.789L70.433,54.789L70.433,54.024C70.433,52.918 71.327,52.024 72.433,52.024L83.925,52.024C85.03,52.024 85.925,52.918 85.925,54.024L85.925,65.172L93.011,84.961L94.839,84.961C95.944,84.961 96.839,85.855 96.839,86.961C96.839,88.066 95.944,88.961 94.839,88.961L61.519,88.961C60.413,88.961 59.519,88.066 59.519,86.961C59.519,85.855 60.413,84.961 61.519,84.961L63.347,84.961L70.433,65.172L70.433,64.754L70.433,64.758ZM70.433,58.789L65.378,58.789L65.378,60.758L70.433,60.758L70.433,58.789ZM67.593,84.965L88.765,84.965L82.519,67.52L73.843,67.52L67.597,84.965L67.593,84.965ZM81.925,56.027L74.429,56.027L74.429,63.523L81.925,63.523L81.925,56.027ZM46.995,60.688C42.487,61.59 37.913,62.043 33.339,62.043C28.769,62.043 24.191,61.59 19.683,60.688L33.339,70.7L46.995,60.688ZM41.698,47.7L41.698,40.356L24.979,40.356L24.979,47.7L41.698,47.7ZM55.147,54.321L55.147,51.7L11.53,51.7L11.53,54.321C18.581,56.801 25.956,58.039 33.339,58.039C40.722,58.039 48.097,56.801 55.148,54.321L55.147,54.321ZM47.569,15.036L19.108,15.036C18.557,15.036 18.053,15.262 17.694,15.622C17.335,15.985 17.108,16.485 17.108,17.036L17.108,34.356C17.108,34.906 17.335,35.41 17.694,35.77C18.057,36.129 18.557,36.356 19.108,36.356L47.569,36.356C48.12,36.356 48.624,36.129 48.983,35.77C49.343,35.406 49.569,34.906 49.569,34.356L49.569,17.036C49.569,16.485 49.343,15.981 48.983,15.622C48.62,15.262 48.12,15.036 47.569,15.036Z" style="fill:rgb(81,86,115);fill-rule:nonzero;"/>
        </g>
    </g>
</svg>
